<svg width="28" height="28" viewBox="0 0 28 28" fill="none" xmlns="http://www.w3.org/2000/svg">
<path d="M14.5926 8.2H13.4166V15.466H14.5926V8.2ZM14.7886 17.37C14.7886 16.95 14.4246 16.586 14.0046 16.586C13.5846 16.586 13.2066 16.95 13.2066 17.37C13.2066 17.79 13.5846 18.168 14.0046 18.168C14.4246 18.168 14.7886 17.79 14.7886 17.37Z" fill="#EAC117"/>
<path d="M14.5926 8.2H14.6926V8.1H14.5926V8.2ZM13.4166 8.2V8.1H13.3166V8.2H13.4166ZM13.4166 15.466H13.3166V15.566H13.4166V15.466ZM14.5926 15.466V15.566H14.6926V15.466H14.5926ZM14.5926 8.1H13.4166V8.3H14.5926V8.1ZM13.3166 8.2V15.466H13.5166V8.2H13.3166ZM13.4166 15.566H14.5926V15.366H13.4166V15.566ZM14.6926 15.466V8.2H14.4926V15.466H14.6926ZM14.8886 17.37C14.8886 16.8948 14.4798 16.486 14.0046 16.486V16.686C14.3694 16.686 14.6886 17.0052 14.6886 17.37H14.8886ZM14.0046 16.486C13.5317 16.486 13.1066 16.8925 13.1066 17.37H13.3066C13.3066 17.0075 13.6375 16.686 14.0046 16.686V16.486ZM13.1066 17.37C13.1066 17.8452 13.5294 18.268 14.0046 18.268V18.068C13.6398 18.068 13.3066 17.7348 13.3066 17.37H13.1066ZM14.0046 18.268C14.4821 18.268 14.8886 17.8429 14.8886 17.37H14.6886C14.6886 17.7371 14.3671 18.068 14.0046 18.068V18.268Z" fill="#EFC517"/>
<path d="M3.08808 20.3L14 1.4L24.9119 20.3H3.08808Z" stroke="#e51414" stroke-width="1.4"/>
</svg>
